<svg width="35" height="37" viewBox="0 0 35 37" fill="none" xmlns="http://www.w3.org/2000/svg">
<path d="M7.83437 37H0.578125V12.297H7.83437V37ZM4.20234 8.92727C1.88203 8.92727 0 6.89553 0 4.44258C1.66078e-08 3.26433 0.442746 2.13435 1.23084 1.3012C2.01893 0.468056 3.08781 0 4.20234 0C5.31687 0 6.38576 0.468056 7.17385 1.3012C7.96194 2.13435 8.40469 3.26433 8.40469 4.44258C8.40469 6.89553 6.52188 8.92727 4.20234 8.92727ZM34.9922 37H27.7516V24.9747C27.7516 22.1088 27.6969 18.4335 23.9789 18.4335C20.2063 18.4335 19.6281 21.5472 19.6281 24.7683V37H12.3797V12.297H19.3391V15.6667H19.4406C20.4094 13.7258 22.7758 11.6776 26.3062 11.6776C33.65 11.6776 35 16.79 35 23.4303V37H34.9922Z" fill="black" fill-opacity="0.38"/>
</svg>
