<svg width="35" height="37" viewBox="0 0 35 37" fill="none" xmlns="http://www.w3.org/2000/svg">
<path d="M17.5039 9.01367C12.5379 9.01367 8.53235 13.2491 8.53235 18.5C8.53235 23.7509 12.5379 27.9863 17.5039 27.9863C22.4699 27.9863 26.4755 23.7509 26.4755 18.5C26.4755 13.2491 22.4699 9.01367 17.5039 9.01367ZM17.5039 24.6674C14.2948 24.6674 11.6712 21.9015 11.6712 18.5C11.6712 15.0985 14.287 12.3326 17.5039 12.3326C20.7209 12.3326 23.3366 15.0985 23.3366 18.5C23.3366 21.9015 20.7131 24.6674 17.5039 24.6674ZM28.935 8.62563C28.935 9.8558 27.9981 10.8383 26.8424 10.8383C25.679 10.8383 24.7499 9.84754 24.7499 8.62563C24.7499 7.40372 25.6868 6.41298 26.8424 6.41298C27.9981 6.41298 28.935 7.40372 28.935 8.62563ZM34.877 10.8713C34.7443 7.90734 34.104 5.28188 32.0505 3.11877C30.0047 0.955651 27.5218 0.278646 24.7186 0.130035C21.8296 -0.0433449 13.1704 -0.0433449 10.2814 0.130035C7.48606 0.270389 5.00307 0.947395 2.94953 3.11051C0.895985 5.27362 0.263525 7.89908 0.122978 10.863C-0.0409927 13.9178 -0.0409927 23.0739 0.122978 26.1287C0.255717 29.0927 0.895985 31.7181 2.94953 33.8812C5.00307 36.0443 7.47825 36.7214 10.2814 36.87C13.1704 37.0433 21.8296 37.0433 24.7186 36.87C27.5218 36.7296 30.0047 36.0526 32.0505 33.8812C34.0962 31.7181 34.7365 29.0927 34.877 26.1287C35.041 23.0739 35.041 13.9261 34.877 10.8713ZM31.1447 29.4064C30.5357 31.0246 29.3567 32.2713 27.8185 32.9235C25.5151 33.8895 20.0494 33.6666 17.5039 33.6666C14.9585 33.6666 9.48494 33.8812 7.18935 32.9235C5.65895 32.2795 4.47992 31.0329 3.86308 29.4064C2.94953 26.9708 3.16035 21.1915 3.16035 18.5C3.16035 15.8085 2.95733 10.0209 3.86308 7.59361C4.47211 5.9754 5.65114 4.72872 7.18935 4.07648C9.49275 3.11051 14.9585 3.33343 17.5039 3.33343C20.0494 3.33343 25.5229 3.11877 27.8185 4.07648C29.3489 4.72046 30.5279 5.96714 31.1447 7.59361C32.0583 10.0292 31.8475 15.8085 31.8475 18.5C31.8475 21.1915 32.0583 26.9791 31.1447 29.4064Z" fill="black" fill-opacity="0.38"/>
</svg>
