<svg width="35" height="37" viewBox="0 0 35 37" fill="none" xmlns="http://www.w3.org/2000/svg">
<path d="M31.4024 9.22106C31.4246 9.62573 31.4246 10.0305 31.4246 10.4352C31.4246 22.7781 24.207 37 11.0153 37C6.95115 37 3.17578 35.4679 0 32.8086C0.577434 32.8953 1.13258 32.9242 1.73223 32.9242C5.08562 32.9242 8.1726 31.45 10.6377 28.9352C7.48415 28.8484 4.84137 26.1602 3.93082 22.4602C4.37502 22.5468 4.81915 22.6047 5.28557 22.6047C5.92958 22.6047 6.57367 22.489 7.17325 22.2867C3.88645 21.4195 1.42127 17.6617 1.42127 13.1234V13.0078C2.37618 13.7016 3.48668 14.1352 4.66363 14.1929C2.73151 12.5163 1.4657 9.65465 1.4657 6.41712C1.4657 4.68278 1.82096 3.09294 2.44283 1.70543C5.97395 7.37105 11.2817 11.071 17.2335 11.4757C17.1224 10.782 17.0558 10.0594 17.0558 9.33673C17.0558 4.19136 20.2538 0 24.229 0C26.2944 0 28.1599 1.12734 29.4702 2.94844C31.0913 2.54377 32.6459 1.76326 34.0229 0.693755C33.4898 2.86177 32.3572 4.68287 30.8693 5.83904C32.3129 5.63679 33.712 5.11636 35 4.39378C34.023 6.24371 32.8015 7.8913 31.4024 9.22106Z" fill="black" fill-opacity="0.38"/>
</svg>
