<svg width="20" height="20" viewBox="0 0 26 26" fill="none" xmlns="http://www.w3.org/2000/svg">
<path d="M5.13442 10.857C7.10477 14.8025 10.3028 18.035 14.218 20.0784L17.2965 17.0459C17.6743 16.6738 18.2308 16.553 18.7156 16.7233C20.2673 17.2489 21.9457 17.5393 23.6679 17.5523C24.4317 17.558 25.052 18.1877 25.0463 18.9516L25.0098 23.7986C25.004 24.5625 24.3743 25.1828 23.6105 25.177C10.5692 25.0789 0.0795989 14.4301 0.177777 1.38885C0.183527 0.624982 0.813215 0.00470501 1.57708 0.0104556L6.43806 0.0470501C7.20192 0.0528007 7.8222 0.682488 7.81645 1.44636C7.80338 3.18242 8.0686 4.85113 8.57077 6.41051C8.71988 6.89776 8.60469 7.43857 8.21289 7.82452L5.13442 10.857Z" fill="#F4F3EE" fill-opacity="0.67"/>
</svg>
